/* XPM */
static char *robot[] = {
/* columns rows colors chars-per-pixel */
"32 32 63 1",
"  c #1065AD",
". c #1069AD",
"X c #1869AD",
"o c #216DB5",
"O c #2171B5",
"+ c #2971B5",
"@ c #2975B5",
"# c #2979B5",
"$ c #3179B5",
"% c #397DB5",
"& c #397DBD",
"* c #3982BD",
"= c #4282BD",
"- c #4286BD",
"; c #4A86BD",
": c #528EBD",
"> c #4A8EC6",
", c #528EC6",
"< c #5292C6",
"1 c #5A92C6",
"2 c #5A96C6",
"3 c #6396C6",
"4 c #639AC6",
"5 c #6B9AC6",
"6 c #6B9EC6",
"7 c #639ECE",
"8 c #73A2CE",
"9 c #73A6CE",
"0 c #7BAACE",
"q c #84AACE",
"w c #84AED6",
"e c #8CB2D6",
"r c #8CB6D6",
"t c #94B2D6",
"y c #94B6D6",
"u c #9CBAD6",
"i c #9CBED6",
"p c #9CBEDE",
"a c #A5C7DE",
"s c #ADC7DE",
"d c #ADCBDE",
"f c #B5CBDE",
"g c #B5CFE7",
"h c #BDD3E7",
"j c #BDD7E7",
"k c #C6D3E7",
"l c #C6D7E7",
"z c #C6DBE7",
"x c #CEDBE7",
"c c #CEDFE7",
"v c #C6DFEF",
"b c #D6DFEF",
"n c #D6E3EF",
"m c #D6E7EF",
"M c #DEE7EF",
"N c #DEEBEF",
"B c #E7EFEF",
"V c #E7EFF7",
"C c #EFF3F7",
"Z c #EFF7F7",
"A c #F7F7F7",
"S c #F7FBF7",
"D c #FFFFFF",
/* pixels */
"        $q                      ",
"        $B6                     ",
"     @  &y$$&&%%.               ",
"     X $M= lSSSS$               ",
"      Xx6  jcDNB$               ",
"      qy   zDDDS$               ",
"     %hX   jAAAZ$               ",
"     Xt1X $46666,               ",
"      :fMpdDDDDDD               ",
"        +5aDDDDDD$x=            ",
"          pDDDDDD <M8           ",
"          pDDDDDD  @g;          ",
"          >hhhhhw   %n          ",
"          XDDDDD*  +h%  +       ",
"          XDDDDD9 ox0           ",
"          XDDDDD0Xlq            ",
"          XDDDDDik3             ",
"          XCCCCCbn%             ",
"   +      XeO X-=$              ",
"          yS; *D0               ",
"         :Se  *D0               ",
"        +Bl   *D0               ",
"        6Z2   *D0               ",
"         iCqX *D0               ",
"         XuSc&#h2               ",
"           6CC1C9               ",
"            $s4v7               ",
"            :AmD0               ",
"           @VnyD0               ",
"            q&0D0               ",
"              0DZr              ",
"              2hh8              "
};
